# xmcd
#
# Track frame offsets: 
#        150
#        12193
#        24704
#        38723
#        50870
#        65851
#        78544
#        89599
#        102708
#        115375
#        126950
#        141723
#        155950
#        168669
#        180140
#
# Disc length: 2499 seconds
#
# Revision: 2
# Processed by: cddbd v1.5.2PL0 Copyright (c) Steve Scherf et al.
# Submitted via: ExactAudioCopyFreeDBPlugin 1.0
#
DISCID=e509c10f
DTITLE=Ray Charles - Anthology
DYEAR=2005
DGENRE=R&B
TTITLE0=Mess Around
TTITLE1=Rockin' Chair Blues
TTITLE2=Crying Time
TTITLE3=C.C. Rider
TTITLE4=Hallelujah, I Love Her So
TTITLE5=Lonely Boy (I'm Just A)
TTITLE6=I'll Do Anything But Work
TTITLE7=Baby Won't You Please Come Home
TTITLE8=Can Anyone Ask For More?
TTITLE9=How Long
TTITLE10=I'm Wonderin' and Wonderin'
TTITLE11=Kissa Me Baby
TTITLE12=The Snow Is Falling
TTITLE13=What Have I Done?
TTITLE14=Ray's Blues
EXTD=
EXTT0=
EXTT1=
EXTT2=
EXTT3=
EXTT4=
EXTT5=
EXTT6=
EXTT7=
EXTT8=
EXTT9=
EXTT10=
EXTT11=
EXTT12=
EXTT13=
EXTT14=
PLAYORDER=
